<?xml version="1.0" encoding="UTF-8"?>
<svg id="Layer_2" data-name="Layer 2" xmlns="http://www.w3.org/2000/svg" viewBox="0 0 45.92 61.57">
  <defs>
    <style>
      .cls-1 {
        fill: #E8470A;
      }
    </style>
  </defs>
  <g id="Layer_1-2" data-name="Layer 1">
    <polygon class="cls-1" points="0 37.11 4.02 31.25 21.78 36.3 17.76 42.16 0 37.11"/>
    <path class="cls-1" d="M22.25,61.57l-17.82-5.1v-16.6l13.41,3.81c.32.09.66-.03.84-.31l3.56-5.2v23.4Z"/>
    <path class="cls-1" d="M39.87,30.32l-16.91,4.8-16.9-4.8,8.06-2.29c.52.96,1,1.93,1.44,2.93.33.76,1.09,1.22,1.88,1.22.26,0,.52-.05.77-.15.25-.11.48-.26.67-.45.19-.19.34-.42.44-.67.06-.16.11-.32.13-.49.37.53.99.87,1.67.87.06,0,.12,0,.17,0h0c.55-.05,1.04-.31,1.39-.73.12-.14.22-.3.29-.47.07.17.17.33.29.47.35.42.85.68,1.39.73h.01c.05,0,.11,0,.16,0,.67,0,1.29-.34,1.66-.86.02.16.07.33.13.48.21.51.6.91,1.11,1.12.25.1.51.15.77.15.79,0,1.54-.46,1.88-1.22.43-.99.91-1.97,1.44-2.93l8.06,2.29Z"/>
    <path class="cls-1" d="M41.49,56.47l-17.8,5.1v-23.37l3.55,5.18c.19.27.53.4.84.31l13.41-3.81v16.6Z"/>
    <polygon class="cls-1" points="28.16 42.16 24.14 36.29 41.9 31.25 45.92 37.11 28.16 42.16"/>
    <path class="cls-1" d="M33.16,23.35c-1.57,2.17-2.95,4.57-4.05,7.07-.15.33-.53.49-.87.35h0c-.34-.14-.51-.54-.36-.88,1.12-2.57,2.54-5.06,4.18-7.32.13-.17.33-.28.54-.28h0c.55,0,.86.62.54,1.06Z"/>
    <path class="cls-1" d="M17.67,30.77h0c-.34.14-.72-.02-.87-.35-1.09-2.5-2.48-4.9-4.05-7.07-.32-.44,0-1.06.54-1.06h0c.21,0,.41.1.54.27,1.64,2.26,3.06,4.75,4.19,7.33.15.34-.01.74-.36.88Z"/>
    <path class="cls-1" d="M21.16,29.92h0c-.36.03-.68-.23-.72-.6-.39-3.7-1.35-7.38-2.74-10.65-.19-.44.13-.93.61-.93h0c.27,0,.51.16.61.4.09.21.18.42.26.64,1.31,3.26,2.2,6.84,2.57,10.4.04.37-.24.7-.61.73Z"/>
    <path class="cls-1" d="M28.23,18.67c-1.39,3.27-2.35,6.95-2.74,10.65-.04.36-.36.63-.72.6h0c-.37-.03-.65-.36-.61-.73.37-3.56,1.26-7.15,2.57-10.4.09-.21.17-.43.26-.64.1-.25.35-.4.61-.4h0c.48,0,.8.49.61.93Z"/>
    <path class="cls-1" d="M10.91,10.83l.96,2.51,2.71.11c.51.02.72.67.31.98l-2.11,1.64.73,2.56c.14.49-.4.88-.82.61l-2.29-1.48-2.29,1.48c-.42.27-.96-.12-.82-.61l.73-2.56-2.11-1.64c-.4-.31-.2-.96.31-.98l2.71-.11.96-2.51c.18-.47.84-.47,1.02,0Z"/>
    <path class="cls-1" d="M36.03,10.83l.96,2.51,2.71.11c.51.02.72.67.31.98l-2.11,1.64.73,2.56c.14.49-.4.88-.82.61l-2.29-1.48-2.29,1.48c-.42.27-.96-.12-.82-.61l.73-2.56-2.11-1.64c-.4-.31-.2-.96.31-.98l2.71-.11.96-2.51c.18-.47.84-.47,1.02,0Z"/>
    <path class="cls-1" d="M23.47.36l1.64,4.39,4.68.2c.51.02.71.66.32.97l-3.67,2.91,1.26,4.52c.14.49-.41.88-.83.6l-3.91-2.59-3.91,2.59c-.42.28-.96-.11-.83-.6l1.26-4.52-3.67-2.91c-.4-.31-.19-.95.32-.97l4.68-.2,1.64-4.39c.18-.47.85-.47,1.02,0Z"/>
  </g>
</svg>