<?xml version="1.0" encoding="UTF-8"?>
<svg id="Layer_2" data-name="Layer 2" xmlns="http://www.w3.org/2000/svg" viewBox="0 0 60.02 60.02">
  <defs>
    <style>
      .cls-1 {
        fill: #E8470A;
      }
    </style>
  </defs>
  <g id="Layer_1-2" data-name="Layer 1">
    <path class="cls-1" d="M59.54,24.65l-8.41-5.83V1.11c0-.29-.12-.58-.33-.79-.21-.21-.49-.33-.79-.33H10c-.29,0-.58.12-.79.33-.21.21-.33.49-.33.79v17.71L.48,24.65c-.15.1-.27.24-.35.4-.08.16-.13.34-.13.52v31.12c0,.88.35,1.73.98,2.36.63.63,1.47.98,2.36.98h53.35c.88,0,1.73-.35,2.36-.98.63-.62.98-1.47.98-2.36v-31.12c0-.18-.04-.36-.13-.52-.08-.16-.2-.3-.35-.4ZM2.22,27.69l20.06,13.89L2.22,56.69v-29ZM24.21,42.91l3.9,2.7c.56.39,1.22.6,1.9.6.68,0,1.34-.21,1.9-.6l3.9-2.7,19.77,14.89H4.44l19.77-14.89ZM37.74,41.58l20.06-13.89v29l-20.06-15.11ZM56.96,25.57l-5.83,4.03v-8.07l5.83,4.04ZM48.91,2.22v28.92l-18.26,12.64c-.19.13-.41.2-.63.2-.23,0-.45-.07-.63-.2l-18.26-12.64V2.22h37.79ZM8.89,29.6l-5.83-4.03,5.83-4.04v8.07Z"/>
    <path class="cls-1" d="M16.67,11.12h26.68c.29,0,.58-.12.79-.33.21-.21.33-.49.33-.79s-.12-.58-.33-.79c-.21-.21-.49-.33-.79-.33h-26.68c-.29,0-.58.12-.79.33-.21.21-.33.49-.33.79s.12.58.33.79c.21.21.49.33.79.33Z"/>
    <path class="cls-1" d="M16.67,15.56h26.68c.29,0,.58-.12.79-.33.21-.21.33-.49.33-.79s-.12-.58-.33-.79c-.21-.21-.49-.33-.79-.33h-26.68c-.29,0-.58.12-.79.33-.21.21-.33.49-.33.79s.12.58.33.79c.21.21.49.33.79.33Z"/>
    <path class="cls-1" d="M16.67,20.01h26.68c.29,0,.58-.12.79-.33.21-.21.33-.49.33-.79s-.12-.58-.33-.79c-.21-.21-.49-.33-.79-.33h-26.68c-.29,0-.58.12-.79.33-.21.21-.33.49-.33.79s.12.58.33.79c.21.21.49.33.79.33Z"/>
    <path class="cls-1" d="M16.67,24.45h26.68c.29,0,.58-.12.79-.33.21-.21.33-.49.33-.79s-.12-.58-.33-.79c-.21-.21-.49-.33-.79-.33h-26.68c-.29,0-.58.12-.79.33-.21.21-.33.49-.33.79s.12.58.33.79c.21.21.49.33.79.33Z"/>
    <path class="cls-1" d="M16.67,28.9h26.68c.29,0,.58-.12.79-.33.21-.21.33-.49.33-.79s-.12-.58-.33-.79c-.21-.21-.49-.33-.79-.33h-26.68c-.29,0-.58.12-.79.33-.21.21-.33.49-.33.79s.12.58.33.79c.21.21.49.33.79.33Z"/>
    <path class="cls-1" d="M37.79,31.12h-15.56c-.29,0-.58.12-.79.33-.21.21-.33.49-.33.79s.12.58.33.79c.21.21.49.33.79.33h15.56c.29,0,.58-.12.79-.33.21-.21.33-.49.33-.79s-.12-.58-.33-.79c-.21-.21-.49-.33-.79-.33Z"/>
  </g>
</svg>