<?xml version="1.0" encoding="UTF-8"?>
<svg id="Layer_2" data-name="Layer 2" xmlns="http://www.w3.org/2000/svg" viewBox="0 0 60.88 60.36">
  <defs>
    <style>
      .cls-1 {
        fill: #E8470A;
      }
    </style>
  </defs>
  <g id="Layer_1-2" data-name="Layer 1">
    <path class="cls-1" d="M54.66,5.8h-5.9V1.61c0-.89-.72-1.61-1.61-1.61s-1.61.72-1.61,1.61v4.19H15.35V1.61c0-.89-.72-1.61-1.61-1.61s-1.61.72-1.61,1.61v4.19h-5.9c-3.43,0-6.22,2.79-6.22,6.22v8.54h60.88v-8.54c0-3.43-2.79-6.22-6.22-6.22ZM13.74,16.86c-2.33,0-4.22-1.89-4.22-4.22,0-1.53.82-2.87,2.04-3.61.18-.11.38-.21.58-.29v3.9c0,.89.72,1.61,1.61,1.61s1.61-.72,1.61-1.61v-3.9c.2.08.39.18.58.29,1.22.74,2.04,2.08,2.04,3.61,0,2.33-1.89,4.22-4.22,4.22ZM47.14,16.86c-2.33,0-4.22-1.89-4.22-4.22,0-1.53.82-2.87,2.04-3.61.18-.11.38-.21.58-.29v3.9c0,.89.72,1.61,1.61,1.61s1.61-.72,1.61-1.61v-3.9c.2.08.39.18.58.29,1.22.74,2.04,2.08,2.04,3.61,0,2.33-1.89,4.22-4.22,4.22Z"/>
    <path class="cls-1" d="M0,54.14c0,3.43,2.79,6.22,6.22,6.22h48.43c3.43,0,6.22-2.79,6.22-6.22v-30.28H0v30.28ZM57.7,54.13v.19h0c0-.06,0-.13,0-.19ZM19.12,38.68c.69-.56,1.71-.46,2.27.23l6.04,7.41,12.12-16.51c.53-.72,1.54-.87,2.25-.35.72.53.87,1.54.35,2.25l-13.35,18.19c-.3.4-.76.65-1.26.66-.01,0-.03,0-.04,0-.48,0-.94-.22-1.25-.59l-7.35-9.03c-.56-.69-.46-1.71.23-2.27Z"/>
  </g>
</svg>